<svg width="550" height="550" viewBox="0 0 550 550" fill="none" xmlns="http://www.w3.org/2000/svg">
<g clip-path="url(#clip0_8_354)">
<rect width="550" height="550" fill="#F5F7FB"/>
<path d="M244.922 319.42H246.615C246.564 317.557 244.916 316.205 242.553 316.205C240.217 316.205 238.428 317.54 238.428 319.545C238.428 321.165 239.587 322.114 241.456 322.619L242.831 322.994C244.075 323.324 245.036 323.733 245.036 324.767C245.036 325.903 243.95 326.653 242.456 326.653C241.104 326.653 239.979 326.051 239.876 324.784H238.115C238.229 326.892 239.859 328.193 242.467 328.193C245.2 328.193 246.774 326.756 246.774 324.784C246.774 322.688 244.905 321.875 243.428 321.511L242.291 321.216C241.382 320.983 240.172 320.557 240.178 319.443C240.178 318.455 241.081 317.722 242.513 317.722C243.848 317.722 244.797 318.347 244.922 319.42ZM252.81 319.273H251.02V317.182H249.321V319.273H248.043V320.636H249.321V325.79C249.315 327.375 250.526 328.142 251.866 328.114C252.406 328.108 252.77 328.006 252.969 327.932L252.662 326.528C252.548 326.551 252.338 326.602 252.065 326.602C251.514 326.602 251.02 326.42 251.02 325.438V320.636H252.81V319.273ZM257.229 328.193C258.672 328.193 259.484 327.46 259.808 326.807H259.876V328H261.536V322.205C261.536 319.665 259.536 319.159 258.149 319.159C256.57 319.159 255.115 319.795 254.547 321.386L256.143 321.75C256.393 321.131 257.03 320.534 258.172 320.534C259.268 320.534 259.831 321.108 259.831 322.097V322.136C259.831 322.756 259.195 322.744 257.626 322.926C255.973 323.119 254.28 323.551 254.28 325.534C254.28 327.25 255.57 328.193 257.229 328.193ZM257.598 326.83C256.638 326.83 255.945 326.398 255.945 325.557C255.945 324.648 256.751 324.324 257.734 324.193C258.286 324.119 259.592 323.972 259.837 323.727V324.852C259.837 325.886 259.013 326.83 257.598 326.83ZM263.798 328H265.497V322.67C265.497 321.528 266.378 320.705 267.582 320.705C267.935 320.705 268.332 320.767 268.469 320.807V319.182C268.298 319.159 267.963 319.142 267.747 319.142C266.724 319.142 265.849 319.722 265.531 320.659H265.44V319.273H263.798V328ZM274.528 319.273H272.739V317.182H271.04V319.273H269.761V320.636H271.04V325.79C271.034 327.375 272.244 328.142 273.585 328.114C274.125 328.108 274.489 328.006 274.688 327.932L274.381 326.528C274.267 326.551 274.057 326.602 273.784 326.602C273.233 326.602 272.739 326.42 272.739 325.438V320.636H274.528V319.273ZM288.233 331.273V319.273H286.574V320.688H286.432C286.131 320.148 285.545 319.159 283.926 319.159C281.818 319.159 280.261 320.824 280.261 323.653C280.261 326.477 281.795 328.17 283.909 328.17C285.5 328.17 286.125 327.199 286.432 326.642H286.534V331.273H288.233ZM286.568 323.636C286.568 325.472 285.75 326.722 284.29 326.722C282.773 326.722 281.977 325.386 281.977 323.636C281.977 321.903 282.75 320.602 284.29 320.602C285.773 320.602 286.568 321.812 286.568 323.636ZM296.045 324.381C296.051 325.864 294.949 326.568 293.994 326.568C292.943 326.568 292.216 325.807 292.216 324.619V319.273H290.517V324.824C290.517 326.989 291.705 328.114 293.381 328.114C294.693 328.114 295.585 327.42 295.989 326.489H296.08V328H297.75V319.273H296.045V324.381ZM300.033 328H301.732V319.273H300.033V328ZM300.891 317.926C301.476 317.926 301.964 317.472 301.964 316.915C301.964 316.358 301.476 315.898 300.891 315.898C300.3 315.898 299.817 316.358 299.817 316.915C299.817 317.472 300.3 317.926 300.891 317.926ZM303.835 328H310.841V326.523H306.136V326.443L310.682 320.511V319.273H303.989V320.75H308.562V320.83L303.835 326.835V328Z" fill="#F5F7FB"/>
<path fill-rule="evenodd" clip-rule="evenodd" d="M-5.55191 436.906C35.9614 433.775 82.2425 422.279 112.306 451.109C145.581 483.02 155.282 534.703 142.701 579.081C130.767 621.18 93.7448 652.092 51.8208 664.476C16.5281 674.902 -15.4332 650.605 -49.1007 635.738C-85.3375 619.737 -133.641 614.993 -145.741 577.239C-158.358 537.868 -132.269 496.588 -103.064 467.353C-77.7328 441.995 -41.2727 439.6 -5.55191 436.906Z" fill="#DEEBF8"/>
<path fill-rule="evenodd" clip-rule="evenodd" d="M455.409 81.3947C427.121 50.8508 389.318 21.7816 393.173 -19.6933C397.439 -65.599 431.854 -105.359 474.419 -123.133C514.797 -139.994 562.035 -130.256 597.822 -105.149C627.947 -84.0141 628.823 -43.8756 638.141 -8.27104C648.17 30.0508 674.521 70.8106 652.501 103.779C629.538 138.159 580.991 143.432 539.931 138.768C504.318 134.723 479.751 107.677 455.409 81.3947Z" fill="#FFFAD1"/>
<rect x="179" y="314" width="193" height="52" rx="15" fill="#4D5B9E"/>
<path d="M245.562 336.67C245.501 336.133 245.251 335.716 244.812 335.42C244.373 335.121 243.819 334.972 243.153 334.972C242.676 334.972 242.263 335.047 241.914 335.199C241.566 335.347 241.295 335.551 241.102 335.812C240.912 336.07 240.818 336.364 240.818 336.693C240.818 336.97 240.882 337.208 241.011 337.409C241.143 337.61 241.316 337.778 241.528 337.915C241.744 338.047 241.975 338.159 242.221 338.25C242.467 338.337 242.704 338.409 242.931 338.466L244.068 338.761C244.439 338.852 244.819 338.975 245.21 339.131C245.6 339.286 245.962 339.491 246.295 339.744C246.628 339.998 246.897 340.312 247.102 340.688C247.31 341.062 247.414 341.511 247.414 342.034C247.414 342.693 247.244 343.278 246.903 343.79C246.566 344.301 246.075 344.705 245.431 345C244.791 345.295 244.016 345.443 243.107 345.443C242.236 345.443 241.482 345.305 240.846 345.028C240.21 344.752 239.712 344.36 239.352 343.852C238.992 343.341 238.793 342.735 238.755 342.034H240.516C240.551 342.455 240.687 342.805 240.926 343.085C241.168 343.362 241.477 343.568 241.852 343.705C242.23 343.837 242.645 343.903 243.096 343.903C243.592 343.903 244.034 343.826 244.42 343.67C244.81 343.511 245.117 343.292 245.34 343.011C245.564 342.727 245.676 342.396 245.676 342.017C245.676 341.672 245.577 341.39 245.38 341.17C245.187 340.951 244.924 340.769 244.59 340.625C244.261 340.481 243.888 340.354 243.471 340.244L242.096 339.869C241.164 339.616 240.426 339.242 239.88 338.75C239.338 338.258 239.068 337.606 239.068 336.795C239.068 336.125 239.249 335.54 239.613 335.04C239.977 334.54 240.469 334.152 241.09 333.875C241.712 333.595 242.412 333.455 243.193 333.455C243.98 333.455 244.676 333.593 245.278 333.869C245.884 334.146 246.361 334.527 246.71 335.011C247.058 335.492 247.24 336.045 247.255 336.67H245.562ZM253.45 336.523V337.886H248.683V336.523H253.45ZM249.961 334.432H251.66V342.688C251.66 343.017 251.709 343.265 251.808 343.432C251.906 343.595 252.033 343.706 252.188 343.767C252.347 343.824 252.52 343.852 252.705 343.852C252.842 343.852 252.961 343.843 253.063 343.824C253.166 343.805 253.245 343.79 253.302 343.778L253.609 345.182C253.51 345.22 253.37 345.258 253.188 345.295C253.007 345.337 252.779 345.36 252.507 345.364C252.06 345.371 251.643 345.292 251.257 345.125C250.87 344.958 250.558 344.701 250.319 344.352C250.08 344.004 249.961 343.566 249.961 343.04V334.432ZM257.869 345.443C257.316 345.443 256.816 345.341 256.369 345.136C255.922 344.928 255.568 344.627 255.306 344.233C255.049 343.839 254.92 343.356 254.92 342.784C254.92 342.292 255.015 341.886 255.204 341.568C255.393 341.25 255.649 340.998 255.971 340.812C256.293 340.627 256.653 340.487 257.051 340.392C257.448 340.297 257.854 340.225 258.266 340.176C258.789 340.116 259.213 340.066 259.539 340.028C259.865 339.987 260.102 339.92 260.249 339.83C260.397 339.739 260.471 339.591 260.471 339.386V339.347C260.471 338.85 260.331 338.466 260.051 338.193C259.774 337.92 259.361 337.784 258.812 337.784C258.24 337.784 257.789 337.911 257.46 338.165C257.134 338.415 256.909 338.693 256.784 339L255.187 338.636C255.376 338.106 255.653 337.678 256.016 337.352C256.384 337.023 256.806 336.784 257.284 336.636C257.761 336.485 258.263 336.409 258.789 336.409C259.138 336.409 259.507 336.451 259.897 336.534C260.291 336.614 260.659 336.761 260.999 336.977C261.344 337.193 261.626 337.502 261.846 337.903C262.066 338.301 262.176 338.818 262.176 339.455V345.25H260.516V344.057H260.448C260.338 344.277 260.174 344.492 259.954 344.705C259.734 344.917 259.452 345.093 259.107 345.233C258.763 345.373 258.35 345.443 257.869 345.443ZM258.238 344.08C258.708 344.08 259.109 343.987 259.443 343.801C259.78 343.616 260.035 343.373 260.21 343.074C260.388 342.771 260.477 342.447 260.477 342.102V340.977C260.416 341.038 260.299 341.095 260.124 341.148C259.954 341.197 259.759 341.241 259.539 341.278C259.319 341.312 259.105 341.345 258.897 341.375C258.689 341.402 258.515 341.424 258.374 341.443C258.045 341.485 257.744 341.555 257.471 341.653C257.202 341.752 256.986 341.894 256.823 342.08C256.664 342.261 256.585 342.504 256.585 342.807C256.585 343.227 256.74 343.545 257.051 343.761C257.361 343.973 257.757 344.08 258.238 344.08ZM264.438 345.25V336.523H266.08V337.909H266.171C266.33 337.439 266.611 337.07 267.012 336.801C267.418 336.528 267.876 336.392 268.387 336.392C268.493 336.392 268.618 336.396 268.762 336.403C268.91 336.411 269.025 336.42 269.109 336.432V338.057C269.041 338.038 268.919 338.017 268.745 337.994C268.571 337.968 268.397 337.955 268.222 337.955C267.821 337.955 267.463 338.04 267.149 338.21C266.838 338.377 266.592 338.61 266.41 338.909C266.228 339.205 266.137 339.542 266.137 339.92V345.25H264.438ZM275.168 336.523V337.886H270.401V336.523H275.168ZM271.68 334.432H273.379V342.688C273.379 343.017 273.428 343.265 273.526 343.432C273.625 343.595 273.752 343.706 273.907 343.767C274.066 343.824 274.239 343.852 274.424 343.852C274.56 343.852 274.68 343.843 274.782 343.824C274.884 343.805 274.964 343.79 275.021 343.778L275.328 345.182C275.229 345.22 275.089 345.258 274.907 345.295C274.725 345.337 274.498 345.36 274.225 345.364C273.778 345.371 273.362 345.292 272.975 345.125C272.589 344.958 272.276 344.701 272.038 344.352C271.799 344.004 271.68 343.566 271.68 343.04V334.432ZM287.174 348.523V343.892H287.072C286.97 344.078 286.822 344.29 286.629 344.528C286.439 344.767 286.178 344.975 285.845 345.153C285.511 345.331 285.079 345.42 284.549 345.42C283.845 345.42 283.216 345.241 282.663 344.881C282.114 344.517 281.682 344 281.367 343.33C281.057 342.655 280.901 341.847 280.901 340.903C280.901 339.96 281.059 339.153 281.373 338.483C281.691 337.812 282.127 337.299 282.68 336.943C283.233 336.587 283.86 336.409 284.56 336.409C285.102 336.409 285.538 336.5 285.867 336.682C286.201 336.86 286.458 337.068 286.64 337.307C286.826 337.545 286.97 337.756 287.072 337.938H287.214V336.523H288.873V348.523H287.174ZM284.924 343.972C285.413 343.972 285.826 343.843 286.163 343.585C286.504 343.324 286.761 342.962 286.936 342.5C287.114 342.038 287.203 341.5 287.203 340.886C287.203 340.28 287.115 339.75 286.941 339.295C286.767 338.841 286.511 338.487 286.174 338.233C285.837 337.979 285.42 337.852 284.924 337.852C284.413 337.852 283.987 337.985 283.646 338.25C283.305 338.515 283.047 338.877 282.873 339.335C282.703 339.794 282.617 340.311 282.617 340.886C282.617 341.47 282.704 341.994 282.879 342.46C283.053 342.926 283.31 343.295 283.651 343.568C283.996 343.837 284.42 343.972 284.924 343.972ZM296.686 341.631V336.523H298.39V345.25H296.72V343.739H296.629C296.428 344.205 296.106 344.593 295.663 344.903C295.223 345.21 294.676 345.364 294.021 345.364C293.46 345.364 292.964 345.241 292.532 344.994C292.104 344.744 291.767 344.375 291.521 343.886C291.278 343.398 291.157 342.794 291.157 342.074V336.523H292.856V341.869C292.856 342.464 293.021 342.937 293.35 343.29C293.68 343.642 294.108 343.818 294.634 343.818C294.953 343.818 295.269 343.739 295.583 343.58C295.901 343.42 296.165 343.18 296.373 342.858C296.585 342.536 296.689 342.127 296.686 341.631ZM300.673 345.25V336.523H302.372V345.25H300.673ZM301.531 335.176C301.235 335.176 300.981 335.078 300.769 334.881C300.561 334.68 300.457 334.441 300.457 334.165C300.457 333.884 300.561 333.646 300.769 333.449C300.981 333.248 301.235 333.148 301.531 333.148C301.826 333.148 302.078 333.248 302.286 333.449C302.498 333.646 302.605 333.884 302.605 334.165C302.605 334.441 302.498 334.68 302.286 334.881C302.078 335.078 301.826 335.176 301.531 335.176ZM304.475 345.25V344.085L309.203 338.08V338H304.629V336.523H311.322V337.761L306.776 343.693V343.773H311.481V345.25H304.475Z" fill="#F5F7FB"/>
<path d="M227.235 252.063C226.381 252.438 225.454 252.625 224.454 252.625C222.433 252.625 220.725 251.573 219.329 249.469L217.985 247.438C215.298 247.396 213.152 246.479 211.548 244.687C209.902 242.792 209.079 240.177 209.079 236.844C209.079 233.385 209.933 230.74 211.641 228.906C213.246 227.177 215.454 226.312 218.266 226.312C221.058 226.312 223.277 227.198 224.923 228.969C226.631 230.802 227.485 233.427 227.485 236.844C227.485 239.656 226.943 241.906 225.86 243.594C224.777 245.26 223.318 246.385 221.485 246.969L221.985 247.75C222.485 248.521 223.225 248.927 224.204 248.969C225.1 248.969 226.11 248.729 227.235 248.25V252.063ZM223.673 236.906C223.673 234.573 223.183 232.781 222.204 231.531C221.246 230.26 219.943 229.625 218.298 229.625C216.652 229.625 215.339 230.26 214.36 231.531C213.381 232.781 212.891 234.573 212.891 236.906C212.891 239.219 213.381 241 214.36 242.25C215.339 243.479 216.652 244.094 218.298 244.094C219.943 244.094 221.246 243.479 222.204 242.25C223.183 241 223.673 239.219 223.673 236.906ZM242.033 244.25C241.075 246.271 239.533 247.281 237.408 247.281C234.721 247.281 232.95 246.229 232.096 244.125C231.783 243.396 231.627 242.51 231.627 241.469V231.781H235.315V241.094C235.315 242.094 235.554 242.844 236.033 243.344C236.513 243.823 237.096 244.062 237.783 244.062C238.492 244.062 239.086 243.969 239.565 243.781C240.044 243.573 240.461 243.271 240.815 242.875C241.586 241.979 241.992 240.781 242.033 239.281V231.781H245.721V247H242.033V244.25ZM251.844 231.781H255.532V247H251.844V231.781ZM251.407 226.906C251.407 226.24 251.605 225.719 252.001 225.344C252.397 224.948 252.959 224.75 253.688 224.75C254.397 224.75 254.949 224.948 255.344 225.344C255.761 225.719 255.969 226.24 255.969 226.906C255.969 227.573 255.761 228.104 255.344 228.5C254.949 228.875 254.397 229.062 253.688 229.062C252.959 229.062 252.397 228.875 252.001 228.5C251.605 228.104 251.407 227.573 251.407 226.906ZM260.661 244L268.536 234.812H260.661V231.812H272.598V234.812L264.973 244H272.598V247H260.661V244ZM276.133 244L284.008 234.812H276.133V231.812H288.071V234.812L280.446 244H288.071V247H276.133V244ZM293.043 231.781H296.731V247H293.043V231.781ZM292.606 226.906C292.606 226.24 292.804 225.719 293.199 225.344C293.595 224.948 294.158 224.75 294.887 224.75C295.595 224.75 296.147 224.948 296.543 225.344C296.96 225.719 297.168 226.24 297.168 226.906C297.168 227.573 296.96 228.104 296.543 228.5C296.147 228.875 295.595 229.062 294.887 229.062C294.158 229.062 293.595 228.875 293.199 228.5C292.804 228.104 292.606 227.573 292.606 226.906ZM308.766 231.406C309.724 231.406 310.578 231.573 311.328 231.906C312.099 232.219 312.745 232.635 313.266 233.156C314.308 234.156 314.922 235.417 315.11 236.937L311.391 237.031C311.224 236.365 310.912 235.812 310.453 235.375C310.016 234.937 309.505 234.719 308.922 234.719C308.339 234.719 307.839 234.812 307.422 235C307.005 235.167 306.641 235.437 306.328 235.812C305.62 236.687 305.266 237.896 305.266 239.437C305.266 240.979 305.599 242.146 306.266 242.937C306.933 243.708 307.735 244.094 308.672 244.094C309.63 244.094 310.318 243.875 310.735 243.437C311.172 242.979 311.391 242.365 311.391 241.594H315.11C315.11 243.26 314.558 244.646 313.453 245.75C312.328 246.875 310.755 247.438 308.735 247.438C306.735 247.438 305.058 246.708 303.703 245.25C302.266 243.687 301.547 241.74 301.547 239.406C301.547 236.948 302.266 234.979 303.703 233.5C305.058 232.104 306.745 231.406 308.766 231.406ZM324.556 238.125C325.764 238.125 327.16 238.323 328.743 238.719V237.219C328.743 236.156 328.524 235.375 328.087 234.875C327.67 234.354 326.972 234.094 325.993 234.094C325.035 234.094 324.295 234.292 323.774 234.687C323.254 235.062 322.993 235.604 322.993 236.312H318.962C318.962 234.583 319.566 233.333 320.774 232.562C322.004 231.792 323.712 231.406 325.899 231.406C329.024 231.406 331.045 232.5 331.962 234.687C332.274 235.437 332.431 236.323 332.431 237.344V247H329.212L328.931 244.969C327.951 246.615 326.451 247.438 324.431 247.438C322.472 247.438 320.951 246.958 319.868 246C318.868 245.083 318.368 243.927 318.368 242.531C318.368 241.115 318.92 240.031 320.024 239.281C321.129 238.51 322.639 238.125 324.556 238.125ZM328.743 241.062C327.514 240.729 326.368 240.562 325.306 240.562C323.306 240.562 322.306 241.229 322.306 242.562C322.306 243.125 322.535 243.615 322.993 244.031C323.451 244.427 324.181 244.625 325.181 244.625C326.201 244.625 327.035 244.292 327.681 243.625C328.347 242.937 328.701 242.083 328.743 241.062ZM337.805 225.562H341.493V247H337.805V225.562Z" fill="#293264"/>
<path d="M179.89 272.273H181.254C181.191 270.517 179.572 269.205 177.322 269.205C175.094 269.205 173.344 270.5 173.344 272.455C173.344 274.023 174.481 274.955 176.299 275.477L177.731 275.886C178.958 276.227 180.049 276.659 180.049 277.818C180.049 279.091 178.822 279.932 177.208 279.932C175.822 279.932 174.594 279.318 174.481 278H173.026C173.163 279.909 174.708 281.205 177.208 281.205C179.89 281.205 181.413 279.727 181.413 277.841C181.413 275.659 179.344 274.955 178.14 274.636L176.958 274.318C176.094 274.091 174.708 273.636 174.708 272.386C174.708 271.273 175.731 270.455 177.276 270.455C178.685 270.455 179.754 271.125 179.89 272.273ZM187.093 281.182C189.457 281.182 191.048 279.386 191.048 276.682C191.048 273.955 189.457 272.159 187.093 272.159C184.729 272.159 183.138 273.955 183.138 276.682C183.138 279.386 184.729 281.182 187.093 281.182ZM187.093 279.977C185.298 279.977 184.479 278.432 184.479 276.682C184.479 274.932 185.298 273.364 187.093 273.364C188.888 273.364 189.707 274.932 189.707 276.682C189.707 278.432 188.888 279.977 187.093 279.977ZM193.094 281H194.435V275.545C194.435 274.267 195.367 273.364 196.413 273.364C197.43 273.364 198.14 274.028 198.14 275.023V281H199.504V275.318C199.504 274.193 200.208 273.364 201.435 273.364C202.39 273.364 203.208 273.869 203.208 275.159V281H204.549V275.159C204.549 273.108 203.447 272.159 201.89 272.159C200.64 272.159 199.725 272.733 199.276 273.636H199.185C198.754 272.705 197.992 272.159 196.844 272.159C195.708 272.159 194.867 272.705 194.504 273.636H194.39V272.273H193.094V281ZM210.66 281.182C212.433 281.182 213.728 280.295 214.137 278.977L212.842 278.614C212.501 279.523 211.711 279.977 210.66 279.977C209.086 279.977 208.001 278.96 207.938 277.091H214.273V276.523C214.273 273.273 212.342 272.159 210.523 272.159C208.16 272.159 206.592 274.023 206.592 276.705C206.592 279.386 208.137 281.182 210.66 281.182ZM207.938 275.932C208.029 274.574 208.989 273.364 210.523 273.364C211.978 273.364 212.91 274.455 212.91 275.932H207.938ZM224.109 281.182C225.79 281.182 226.359 280.136 226.654 279.659H226.813V281H228.109V269.364H226.768V273.659H226.654C226.359 273.205 225.836 272.159 224.131 272.159C221.927 272.159 220.404 273.909 220.404 276.659C220.404 279.432 221.927 281.182 224.109 281.182ZM224.29 279.977C222.609 279.977 221.745 278.5 221.745 276.636C221.745 274.795 222.586 273.364 224.29 273.364C225.927 273.364 226.79 274.682 226.79 276.636C226.79 278.614 225.904 279.977 224.29 279.977ZM234.41 281.182C236.183 281.182 237.478 280.295 237.887 278.977L236.592 278.614C236.251 279.523 235.461 279.977 234.41 279.977C232.836 279.977 231.751 278.96 231.688 277.091H238.023V276.523C238.023 273.273 236.092 272.159 234.273 272.159C231.91 272.159 230.342 274.023 230.342 276.705C230.342 279.386 231.887 281.182 234.41 281.182ZM231.688 275.932C231.779 274.574 232.739 273.364 234.273 273.364C235.728 273.364 236.66 274.455 236.66 275.932H231.688ZM246.245 274.227C245.825 272.989 244.881 272.159 243.154 272.159C241.313 272.159 239.95 273.205 239.95 274.682C239.95 275.886 240.665 276.693 242.268 277.068L243.722 277.409C244.603 277.614 245.018 278.034 245.018 278.636C245.018 279.386 244.222 280 242.972 280C241.876 280 241.188 279.528 240.95 278.591L239.677 278.909C239.989 280.392 241.211 281.182 242.995 281.182C245.023 281.182 246.404 280.074 246.404 278.568C246.404 277.352 245.643 276.585 244.086 276.205L242.79 275.886C241.756 275.631 241.29 275.284 241.29 274.614C241.29 273.864 242.086 273.318 243.154 273.318C244.325 273.318 244.808 273.966 245.04 274.568L246.245 274.227ZM251.968 281.182C253.9 281.182 255.173 280 255.4 278.455H254.059C253.809 279.409 253.013 279.977 251.968 279.977C250.377 279.977 249.354 278.659 249.354 276.636C249.354 274.659 250.4 273.364 251.968 273.364C253.15 273.364 253.854 274.091 254.059 274.886H255.4C255.173 273.25 253.786 272.159 251.945 272.159C249.582 272.159 248.013 274.023 248.013 276.682C248.013 279.295 249.513 281.182 251.968 281.182ZM257.36 281H258.701V275.477C258.701 274.295 259.633 273.432 260.906 273.432C261.263 273.432 261.633 273.5 261.724 273.523V272.159C261.57 272.148 261.218 272.136 261.019 272.136C259.974 272.136 259.065 272.727 258.746 273.591H258.656V272.273H257.36V281ZM263.313 281H264.654V272.273H263.313V281ZM263.995 270.818C264.518 270.818 264.95 270.409 264.95 269.909C264.95 269.409 264.518 269 263.995 269C263.472 269 263.04 269.409 263.04 269.909C263.04 270.409 263.472 270.818 263.995 270.818ZM267.11 284.273H268.451V279.659H268.565C268.86 280.136 269.428 281.182 271.11 281.182C273.292 281.182 274.815 279.432 274.815 276.659C274.815 273.909 273.292 272.159 271.087 272.159C269.383 272.159 268.86 273.205 268.565 273.659H268.406V272.273H267.11V284.273ZM268.428 276.636C268.428 274.682 269.292 273.364 270.928 273.364C272.633 273.364 273.474 274.795 273.474 276.636C273.474 278.5 272.61 279.977 270.928 279.977C269.315 279.977 268.428 278.614 268.428 276.636ZM280.656 272.273H278.792V270.182H277.451V272.273H276.133V273.409H277.451V278.864C277.451 280.386 278.678 281.114 279.815 281.114C280.315 281.114 280.633 281.023 280.815 280.955L280.542 279.75C280.428 279.773 280.246 279.818 279.951 279.818C279.36 279.818 278.792 279.636 278.792 278.5V273.409H280.656V272.273ZM282.673 281H284.013V272.273H282.673V281ZM283.354 270.818C283.877 270.818 284.309 270.409 284.309 269.909C284.309 269.409 283.877 269 283.354 269C282.832 269 282.4 269.409 282.4 269.909C282.4 270.409 282.832 270.818 283.354 270.818ZM290.015 281.182C292.379 281.182 293.969 279.386 293.969 276.682C293.969 273.955 292.379 272.159 290.015 272.159C287.651 272.159 286.06 273.955 286.06 276.682C286.06 279.386 287.651 281.182 290.015 281.182ZM290.015 279.977C288.219 279.977 287.401 278.432 287.401 276.682C287.401 274.932 288.219 273.364 290.015 273.364C291.81 273.364 292.629 274.932 292.629 276.682C292.629 278.432 291.81 279.977 290.015 279.977ZM297.357 275.75C297.357 274.227 298.3 273.364 299.585 273.364C300.829 273.364 301.585 274.176 301.585 275.545V281H302.925V275.455C302.925 273.227 301.738 272.159 299.971 272.159C298.653 272.159 297.835 272.75 297.425 273.636H297.312V272.273H296.016V281H297.357V275.75ZM309.876 281H311.217V272.273H309.876V281ZM310.558 270.818C311.08 270.818 311.512 270.409 311.512 269.909C311.512 269.409 311.08 269 310.558 269C310.035 269 309.603 269.409 309.603 269.909C309.603 270.409 310.035 270.818 310.558 270.818ZM317.559 272.273H315.604V271.386C315.604 270.523 315.968 270.068 316.854 270.068C317.241 270.068 317.468 270.159 317.604 270.205L317.991 269.045C317.786 268.955 317.377 268.818 316.718 268.818C315.468 268.818 314.263 269.568 314.263 271.068V272.273H312.854V273.409H314.263V281H315.604V273.409H317.559V272.273ZM325.279 275.75C325.279 274.227 326.222 273.364 327.506 273.364C328.751 273.364 329.506 274.176 329.506 275.545V281H330.847V275.455C330.847 273.227 329.66 272.159 327.893 272.159C326.575 272.159 325.756 272.75 325.347 273.636H325.234V272.273H323.938V281H325.279V275.75ZM336.957 281.182C338.729 281.182 340.025 280.295 340.434 278.977L339.138 278.614C338.798 279.523 338.008 279.977 336.957 279.977C335.383 279.977 334.298 278.96 334.235 277.091H340.57V276.523C340.57 273.273 338.638 272.159 336.82 272.159C334.457 272.159 332.888 274.023 332.888 276.705C332.888 279.386 334.434 281.182 336.957 281.182ZM334.235 275.932C334.326 274.574 335.286 273.364 336.82 273.364C338.275 273.364 339.207 274.455 339.207 275.932H334.235ZM346.269 281.182C348.042 281.182 349.337 280.295 349.746 278.977L348.451 278.614C348.11 279.523 347.32 279.977 346.269 279.977C344.695 279.977 343.61 278.96 343.548 277.091H349.883V276.523C349.883 273.273 347.951 272.159 346.133 272.159C343.769 272.159 342.201 274.023 342.201 276.705C342.201 279.386 343.746 281.182 346.269 281.182ZM343.548 275.932C343.638 274.574 344.599 273.364 346.133 273.364C347.587 273.364 348.519 274.455 348.519 275.932H343.548ZM355.218 281.182C356.9 281.182 357.468 280.136 357.763 279.659H357.923V281H359.218V269.364H357.877V273.659H357.763C357.468 273.205 356.945 272.159 355.241 272.159C353.036 272.159 351.513 273.909 351.513 276.659C351.513 279.432 353.036 281.182 355.218 281.182ZM355.4 279.977C353.718 279.977 352.854 278.5 352.854 276.636C352.854 274.795 353.695 273.364 355.4 273.364C357.036 273.364 357.9 274.682 357.9 276.636C357.9 278.614 357.013 279.977 355.4 279.977ZM365.519 281.182C367.292 281.182 368.587 280.295 368.996 278.977L367.701 278.614C367.36 279.523 366.57 279.977 365.519 279.977C363.945 279.977 362.86 278.96 362.798 277.091H369.133V276.523C369.133 273.273 367.201 272.159 365.383 272.159C363.019 272.159 361.451 274.023 361.451 276.705C361.451 279.386 362.996 281.182 365.519 281.182ZM362.798 275.932C362.888 274.574 363.849 273.364 365.383 273.364C366.837 273.364 367.769 274.455 367.769 275.932H362.798ZM374.468 281.182C376.15 281.182 376.718 280.136 377.013 279.659H377.173V281H378.468V269.364H377.127V273.659H377.013C376.718 273.205 376.195 272.159 374.491 272.159C372.286 272.159 370.763 273.909 370.763 276.659C370.763 279.432 372.286 281.182 374.468 281.182ZM374.65 279.977C372.968 279.977 372.104 278.5 372.104 276.636C372.104 274.795 372.945 273.364 374.65 273.364C376.286 273.364 377.15 274.682 377.15 276.636C377.15 278.614 376.263 279.977 374.65 279.977Z" fill="#293264"/>
</g>
<defs>
<clipPath id="clip0_8_354">
<rect width="550" height="550" fill="white"/>
</clipPath>
</defs>
</svg>
